{
	"patcher" : 	{
		"fileversion" : 1,
		"appversion" : 		{
			"major" : 8,
			"minor" : 3,
			"revision" : 0,
			"architecture" : "x64",
			"modernui" : 1
		}
,
		"classnamespace" : "box",
		"rect" : [ 1414.0, 272.0, 1013.0, 856.0 ],
		"bglocked" : 0,
		"openinpresentation" : 1,
		"default_fontsize" : 12.0,
		"default_fontface" : 0,
		"default_fontname" : "Arial",
		"gridonopen" : 1,
		"gridsize" : [ 15.0, 15.0 ],
		"gridsnaponopen" : 1,
		"objectsnaponopen" : 1,
		"statusbarvisible" : 2,
		"toolbarvisible" : 1,
		"lefttoolbarpinned" : 0,
		"toptoolbarpinned" : 0,
		"righttoolbarpinned" : 0,
		"bottomtoolbarpinned" : 0,
		"toolbars_unpinned_last_save" : 0,
		"tallnewobj" : 0,
		"boxanimatetime" : 200,
		"enablehscroll" : 1,
		"enablevscroll" : 1,
		"devicewidth" : 0.0,
		"description" : "",
		"digest" : "",
		"tags" : "",
		"style" : "",
		"subpatcher_template" : "",
		"assistshowspatchername" : 0,
		"boxes" : [ 			{
				"box" : 				{
					"fontface" : 1,
					"fontsize" : 16.0,
					"id" : "obj-7",
					"maxclass" : "comment",
					"numinlets" : 1,
					"numoutlets" : 0,
					"patching_rect" : [ 445.0, 679.088237524032593, 24.0, 25.0 ],
					"presentation" : 1,
					"presentation_rect" : [ 370.0, 423.0, 24.0, 25.0 ],
					"text" : "Z",
					"textcolor" : [ 1.0, 1.0, 1.0, 1.0 ],
					"textjustification" : 1
				}

			}
, 			{
				"box" : 				{
					"fontface" : 1,
					"fontsize" : 16.0,
					"id" : "obj-6",
					"maxclass" : "comment",
					"numinlets" : 1,
					"numoutlets" : 0,
					"patching_rect" : [ 445.0, 512.088237524032593, 24.0, 25.0 ],
					"presentation" : 1,
					"presentation_rect" : [ 370.0, 273.0, 24.0, 25.0 ],
					"text" : "Y",
					"textcolor" : [ 1.0, 1.0, 1.0, 1.0 ],
					"textjustification" : 1
				}

			}
, 			{
				"box" : 				{
					"fontface" : 1,
					"fontsize" : 16.0,
					"id" : "obj-5",
					"maxclass" : "comment",
					"numinlets" : 1,
					"numoutlets" : 0,
					"patching_rect" : [ 440.0, 345.088237524032593, 24.0, 25.0 ],
					"presentation" : 1,
					"presentation_rect" : [ 370.0, 123.0, 24.0, 25.0 ],
					"text" : "X",
					"textcolor" : [ 1.0, 1.0, 1.0, 1.0 ],
					"textjustification" : 1
				}

			}
, 			{
				"box" : 				{
					"fontface" : 1,
					"fontsize" : 16.0,
					"id" : "obj-11",
					"maxclass" : "comment",
					"numinlets" : 1,
					"numoutlets" : 0,
					"patching_rect" : [ 408.0, 226.088237524032593, 61.0, 25.0 ],
					"presentation" : 1,
					"presentation_rect" : [ 333.0, 0.0, 61.0, 25.0 ],
					"text" : "back",
					"textcolor" : [ 0.654901960784314, 0.945098039215686, 1.0, 1.0 ]
				}

			}
, 			{
				"box" : 				{
					"fontface" : 1,
					"fontsize" : 16.0,
					"id" : "obj-10",
					"maxclass" : "comment",
					"numinlets" : 1,
					"numoutlets" : 0,
					"patching_rect" : [ 346.0, 226.088237524032593, 61.0, 25.0 ],
					"presentation" : 1,
					"presentation_rect" : [ 271.0, 0.0, 61.0, 25.0 ],
					"text" : "wrist",
					"textcolor" : [ 0.964705882352941, 0.658823529411765, 0.0, 1.0 ]
				}

			}
, 			{
				"box" : 				{
					"bgcolor" : [ 0.2, 0.2, 0.2, 0.0 ],
					"id" : "obj-4",
					"maxclass" : "multislider",
					"numinlets" : 1,
					"numoutlets" : 2,
					"outlettype" : [ "", "" ],
					"parameter_enable" : 0,
					"patching_rect" : [ 75.0, 556.088237524032593, 394.0, 148.0 ],
					"presentation" : 1,
					"presentation_rect" : [ 0.0, 300.0, 394.0, 148.0 ],
					"setminmax" : [ -2.0, 2.0 ],
					"setstyle" : 3,
					"slidercolor" : [ 1.0, 0.403921568627451, 0.015686274509804, 0.58 ],
					"thickness" : 1
				}

			}
, 			{
				"box" : 				{
					"bgcolor" : [ 0.2, 0.2, 0.2, 0.0 ],
					"id" : "obj-8",
					"maxclass" : "multislider",
					"numinlets" : 1,
					"numoutlets" : 2,
					"outlettype" : [ "", "" ],
					"parameter_enable" : 0,
					"patching_rect" : [ 75.0, 393.088237524032593, 394.0, 148.0 ],
					"presentation" : 1,
					"presentation_rect" : [ 0.0, 150.0, 394.0, 148.0 ],
					"setminmax" : [ -2.0, 2.0 ],
					"setstyle" : 3,
					"slidercolor" : [ 1.0, 0.403921568627451, 0.015686274509804, 0.58 ],
					"thickness" : 1
				}

			}
, 			{
				"box" : 				{
					"bgcolor" : [ 0.2, 0.2, 0.2, 0.0 ],
					"id" : "obj-9",
					"maxclass" : "multislider",
					"numinlets" : 1,
					"numoutlets" : 2,
					"outlettype" : [ "", "" ],
					"parameter_enable" : 0,
					"patching_rect" : [ 75.0, 226.088237524032593, 394.0, 148.0 ],
					"presentation" : 1,
					"presentation_rect" : [ 0.0, 0.0, 394.0, 148.0 ],
					"setminmax" : [ -2.0, 2.0 ],
					"setstyle" : 3,
					"slidercolor" : [ 1.0, 0.403921568627451, 0.015686274509804, 0.58 ],
					"thickness" : 1
				}

			}
, 			{
				"box" : 				{
					"id" : "obj-43",
					"maxclass" : "newobj",
					"numinlets" : 1,
					"numoutlets" : 3,
					"outlettype" : [ "float", "float", "float" ],
					"patching_rect" : [ 190.0, 158.761706113815308, 67.0, 22.0 ],
					"text" : "unpack f f f"
				}

			}
, 			{
				"box" : 				{
					"id" : "obj-28",
					"maxclass" : "newobj",
					"numinlets" : 0,
					"numoutlets" : 1,
					"outlettype" : [ "" ],
					"patching_rect" : [ 190.0, 67.088237524032593, 63.0, 22.0 ],
					"text" : "r Waccxyz"
				}

			}
, 			{
				"box" : 				{
					"id" : "obj-3",
					"maxclass" : "multislider",
					"numinlets" : 1,
					"numoutlets" : 2,
					"outlettype" : [ "", "" ],
					"parameter_enable" : 0,
					"patching_rect" : [ 75.0, 556.088237524032593, 394.0, 148.0 ],
					"presentation" : 1,
					"presentation_rect" : [ 0.0, 300.0, 394.0, 148.0 ],
					"setminmax" : [ -2.0, 2.0 ],
					"setstyle" : 3,
					"thickness" : 1
				}

			}
, 			{
				"box" : 				{
					"id" : "obj-2",
					"maxclass" : "multislider",
					"numinlets" : 1,
					"numoutlets" : 2,
					"outlettype" : [ "", "" ],
					"parameter_enable" : 0,
					"patching_rect" : [ 75.0, 393.088237524032593, 394.0, 148.0 ],
					"presentation" : 1,
					"presentation_rect" : [ 0.0, 150.0, 394.0, 148.0 ],
					"setminmax" : [ -2.0, 2.0 ],
					"setstyle" : 3,
					"thickness" : 1
				}

			}
, 			{
				"box" : 				{
					"id" : "obj-70",
					"maxclass" : "multislider",
					"numinlets" : 1,
					"numoutlets" : 2,
					"outlettype" : [ "", "" ],
					"parameter_enable" : 0,
					"patching_rect" : [ 75.0, 226.088237524032593, 394.0, 148.0 ],
					"presentation" : 1,
					"presentation_rect" : [ 0.0, 0.0, 394.0, 148.0 ],
					"setminmax" : [ -2.0, 2.0 ],
					"setstyle" : 3,
					"thickness" : 1
				}

			}
, 			{
				"box" : 				{
					"id" : "obj-82",
					"maxclass" : "newobj",
					"numinlets" : 1,
					"numoutlets" : 3,
					"outlettype" : [ "float", "float", "float" ],
					"patching_rect" : [ 81.0, 158.761706113815308, 67.0, 22.0 ],
					"text" : "unpack f f f"
				}

			}
, 			{
				"box" : 				{
					"id" : "obj-78",
					"maxclass" : "newobj",
					"numinlets" : 0,
					"numoutlets" : 1,
					"outlettype" : [ "" ],
					"patching_rect" : [ 81.0, 108.088237524032593, 53.0, 22.0 ],
					"text" : "r accxyz"
				}

			}
 ],
		"lines" : [ 			{
				"patchline" : 				{
					"destination" : [ "obj-43", 0 ],
					"source" : [ "obj-28", 0 ]
				}

			}
, 			{
				"patchline" : 				{
					"color" : [ 0.701960784313725, 0.701960784313725, 0.701960784313725, 0.0 ],
					"destination" : [ "obj-4", 0 ],
					"midpoints" : [ 247.5, 213.0, 60.0, 213.0, 60.0, 552.0, 84.5, 552.0 ],
					"source" : [ "obj-43", 2 ]
				}

			}
, 			{
				"patchline" : 				{
					"color" : [ 0.701960784313725, 0.701960784313725, 0.701960784313725, 0.0 ],
					"destination" : [ "obj-8", 0 ],
					"midpoints" : [ 223.5, 213.0, 60.0, 213.0, 60.0, 387.0, 84.5, 387.0 ],
					"source" : [ "obj-43", 1 ]
				}

			}
, 			{
				"patchline" : 				{
					"color" : [ 0.701960784313725, 0.701960784313725, 0.701960784313725, 0.0 ],
					"destination" : [ "obj-9", 0 ],
					"midpoints" : [ 199.5, 213.0, 84.5, 213.0 ],
					"source" : [ "obj-43", 0 ]
				}

			}
, 			{
				"patchline" : 				{
					"destination" : [ "obj-82", 0 ],
					"source" : [ "obj-78", 0 ]
				}

			}
, 			{
				"patchline" : 				{
					"color" : [ 0.701960784313725, 0.701960784313725, 0.701960784313725, 0.0 ],
					"destination" : [ "obj-2", 0 ],
					"midpoints" : [ 114.5, 213.0, 60.0, 213.0, 60.0, 387.0, 84.5, 387.0 ],
					"source" : [ "obj-82", 1 ]
				}

			}
, 			{
				"patchline" : 				{
					"color" : [ 0.701960784313725, 0.701960784313725, 0.701960784313725, 0.0 ],
					"destination" : [ "obj-3", 0 ],
					"midpoints" : [ 138.5, 213.0, 60.0, 213.0, 60.0, 552.0, 84.5, 552.0 ],
					"source" : [ "obj-82", 2 ]
				}

			}
, 			{
				"patchline" : 				{
					"color" : [ 0.701960784313725, 0.701960784313725, 0.701960784313725, 0.0 ],
					"destination" : [ "obj-70", 0 ],
					"midpoints" : [ 90.5, 213.0, 84.5, 213.0 ],
					"source" : [ "obj-82", 0 ]
				}

			}
 ]
	}

}
